<?xml version="1.0" encoding="UTF-8"?>
<svg id="Camada_2" xmlns="http://www.w3.org/2000/svg" viewBox="0 0 50.22 51.56">
  <defs>
    <style>
      .cls-1 {
        fill: #f39200;
      }
    </style>
  </defs>
  <g id="_x3C_Layer_x3E_">
    <path class="cls-1" d="M14.04,7.02c0,3.88-3.14,7.02-7.02,7.02S0,10.9,0,7.02,3.14,0,7.02,0s7.02,3.14,7.02,7.02"/>
    <path class="cls-1" d="M32.67,7.02c0,3.88-3.14,7.02-7.02,7.02s-7.02-3.14-7.02-7.02S21.77,0,25.65,0s7.02,3.14,7.02,7.02"/>
    <path class="cls-1" d="M14.04,25.78c0,3.88-3.14,7.02-7.02,7.02S0,29.66,0,25.78s3.14-7.02,7.02-7.02,7.02,3.14,7.02,7.02"/>
    <path class="cls-1" d="M14.04,44.54c0,3.88-3.14,7.02-7.02,7.02s-7.02-3.14-7.02-7.02,3.14-7.02,7.02-7.02,7.02,3.14,7.02,7.02"/>
    <path class="cls-1" d="M32.67,44.54c0,3.88-3.14,7.02-7.02,7.02s-7.02-3.14-7.02-7.02,3.14-7.02,7.02-7.02,7.02,3.14,7.02,7.02"/>
    <path class="cls-1" d="M50.22,7.02c0,3.88-3.14,7.02-7.02,7.02s-7.02-3.14-7.02-7.02,3.14-7.02,7.02-7.02,7.02,3.14,7.02,7.02"/>
    <path class="cls-1" d="M32.67,25.78c0,3.88-3.14,7.02-7.02,7.02s-7.02-3.14-7.02-7.02,3.14-7.02,7.02-7.02,7.02,3.14,7.02,7.02"/>
    <path class="cls-1" d="M50.22,44.54c0,3.88-3.14,7.02-7.02,7.02s-7.02-3.14-7.02-7.02,3.14-7.02,7.02-7.02,7.02,3.14,7.02,7.02"/>
  </g>
</svg>